<svg width="24" height="24" viewBox="0 0 24 24" fill="none" xmlns="http://www.w3.org/2000/svg">
<rect width="24" height="24" fill="white"/>
<path fill-rule="evenodd" clip-rule="evenodd" d="M2 1.11011C2 0.557823 2.44772 0.110107 3 0.110107L22.7841 0.110109C23.3363 0.110109 23.7841 0.557825 23.7841 1.11011C23.7841 1.20507 23.7708 1.29693 23.7461 1.38396C23.7708 1.471 23.7841 1.56287 23.7841 1.65784L23.7841 22.8942C23.7841 23.4465 23.3364 23.8942 22.7841 23.8942C22.2318 23.8942 21.7841 23.4465 21.7841 22.8942L21.7841 4.1101L2.70711 23.1871C2.31658 23.5776 1.68342 23.5776 1.29289 23.1871C0.902369 22.7965 0.902369 22.1634 1.29289 21.7729L20.9556 2.11011L3 2.11011C2.44772 2.11011 2 1.66239 2 1.11011Z" fill="#0000FF"/>
</svg>
